<svg xmlns="http://www.w3.org/2000/svg" version="1.1" xmlns:xlink="http://www.w3.org/1999/xlink" width="512" height="512" x="0" y="0" viewBox="0 0 469.333 469.333" style="enable-background:new 0 0 512 512" xml:space="preserve" class=""><g><path d="M394.667 384H74.75c-5.885 0-10.656 4.771-10.667 10.656l-.042 31.104c-.01 11.635 4.51 22.573 12.729 30.802 8.229 8.24 19.156 12.771 30.792 12.771h254.25c24 0 43.521-19.521 43.521-43.521v-31.146A10.66 10.66 0 0 0 394.667 384zM352 42.667c-6.531 0-13.24.656-20.344 1.979C307.25 16.187 272.271 0 234.667 0c-70.583 0-128 57.417-128 128 0 5.885-4.781 10.667-10.667 10.667-5.885 0-10.667-4.781-10.667-10.667 0-23.094 5.313-45.438 15.792-66.406a10.673 10.673 0 0 0-1.219-11.448A10.742 10.742 0 0 0 89 46.469C36.594 59.542 0 106.229 0 160c0 44.333 25 84.635 64.25 104.562l-.115 87.427c0 2.823 1.115 5.542 3.115 7.552 2.01 2 4.719 3.125 7.552 3.125h319.865a10.66 10.66 0 0 0 10.667-10.667v-87.594c39.104-19.979 64-60.219 64-104.406C469.333 95.302 416.698 42.667 352 42.667zM156.104 296.25a10.688 10.688 0 0 1-15.02-1.479c-3.521-4.302-34.417-42.76-34.417-70.771a10.66 10.66 0 0 1 10.667-10.667A10.66 10.66 0 0 1 128.001 224c0 15.438 18.146 43.292 29.583 57.229 3.728 4.563 3.072 11.281-1.48 15.021zm89.229-8.25c0 5.896-4.771 10.667-10.667 10.667S224 293.896 224 288v-64c0-5.896 4.771-10.667 10.667-10.667s10.667 4.771 10.667 10.667v64zm82.917 6.771a10.67 10.67 0 0 1-8.25 3.896c-2.385 0-4.781-.792-6.76-2.417-4.552-3.74-5.219-10.458-1.49-15.01 11.438-13.969 29.583-41.854 29.583-57.24A10.66 10.66 0 0 1 352 213.333 10.66 10.66 0 0 1 362.667 224c0 28.01-30.896 66.469-34.417 70.771z" fill="#ffffff" opacity="1" data-original="#000000" class=""></path></g></svg>